<svg width="29" height="26" viewBox="0 0 29 26" fill="none" xmlns="http://www.w3.org/2000/svg">
<path d="M29 18.4426V22.8196C29 24.5732 27.5342 26 25.7326 26H3.26741C1.46584 26 0 24.5732 0 22.8196V18.4426C0 16.689 1.46584 15.2622 3.26741 15.2622H6.93201V19.4045H4.25567V21.8577H24.7443V19.4045H22.0633V15.2622H25.7279C27.5342 15.2576 29 16.689 29 18.4426ZM19.6848 12.7215H17.7036V1.4222C17.7036 0.635157 17.051 0 16.2425 0H12.767C11.9584 0 11.3059 0.635157 11.3059 1.4222V12.7215H9.32464C8.71939 12.7215 8.38839 13.4073 8.77613 13.863L13.9491 19.9292C14.2328 20.2652 14.7624 20.2652 15.0509 19.9292L20.2333 13.863C20.6211 13.4073 20.2901 12.7215 19.6848 12.7215Z" fill="black"/>
</svg>
